<?xml version="1.0" encoding="UTF-8" standalone="no"?>
<!-- Created with Inkscape (http://www.inkscape.org/) -->

<svg
   xmlns:dc="http://purl.org/dc/elements/1.1/"
   xmlns:cc="http://creativecommons.org/ns#"
   xmlns:rdf="http://www.w3.org/1999/02/22-rdf-syntax-ns#"
   xmlns:svg="http://www.w3.org/2000/svg"
   xmlns="http://www.w3.org/2000/svg"
   xmlns:sodipodi="http://sodipodi.sourceforge.net/DTD/sodipodi-0.dtd"
   xmlns:inkscape="http://www.inkscape.org/namespaces/inkscape"
   width="1052.3622"
   height="744.09448"
   id="svg2"
   version="1.1"
   inkscape:version="0.48.5 r10040"
   sodipodi:docname="New document 1">
  <defs
     id="defs4">
    <inkscape:path-effect
       effect="envelope"
       id="path-effect3985"
       is_visible="true"
       yy="true"
       xx="true"
       bendpath1="m 475.90874,495.46212 167.70499,12.01002"
       bendpath2="m 643.61373,507.47214 0,69.10574"
       bendpath3="M 479.94448,591.11632 643.61373,576.57788"
       bendpath4="m 474.29444,507.47214 0,69.10574"
       bendpath1-nodetypes="cc"
       bendpath3-nodetypes="cc" />
    <inkscape:path-effect
       effect="envelope"
       id="path-effect3941"
       is_visible="true"
       yy="true"
       xx="false"
       bendpath1="M 203.94142,420.41706 356.68498,408.28898"
       bendpath2="m 359.85494,419.37154 0,18.55559"
       bendpath3="m 203.94142,443.57296 153.9323,-3.76388"
       bendpath4="m 203.54517,419.37154 -0.39625,24.41053"
       bendpath1-nodetypes="cc"
       bendpath3-nodetypes="cc"
       bendpath4-nodetypes="cc" />
  </defs>
  <sodipodi:namedview
     id="base"
     pagecolor="#ffffff"
     bordercolor="#666666"
     borderopacity="1.0"
     inkscape:pageopacity="0.0"
     inkscape:pageshadow="2"
     inkscape:zoom="0.7"
     inkscape:cx="442.91783"
     inkscape:cy="344.41669"
     inkscape:document-units="px"
     inkscape:current-layer="layer1"
     showgrid="false"
     units="mm"
     inkscape:window-width="1345"
     inkscape:window-height="886"
     inkscape:window-x="299"
     inkscape:window-y="1138"
     inkscape:window-maximized="0" />
  <metadata
     id="metadata7">
    <rdf:RDF>
      <cc:Work
         rdf:about="">
        <dc:format>image/svg+xml</dc:format>
        <dc:type
           rdf:resource="http://purl.org/dc/dcmitype/StillImage" />
        <dc:title></dc:title>
      </cc:Work>
    </rdf:RDF>
  </metadata>
  <g
     inkscape:label="Layer 1"
     inkscape:groupmode="layer"
     id="layer1"
     transform="translate(0,-308.26769)">
    <path
       transform="translate(0,308.26769)"
       style="fill:#b3b3b3;fill-opacity:1;stroke:#000000;stroke-width:2.5;stroke-linecap:round;stroke-miterlimit:4;stroke-opacity:1;stroke-dashoffset:0"
       d="m 417.69809,109.21361 78.7919,80.30713 -12.12183,-1.51523 -65.65992,-65.15484 z"
       id="rect3884"
       inkscape:connector-curvature="0"
       sodipodi:nodetypes="ccccc" />
    <path
       transform="translate(0,308.26769)"
       style="fill:#b3b3b3;fill-opacity:1;stroke:#000000;stroke-width:2.50000000000000000;stroke-linecap:round;stroke-miterlimit:4;stroke-opacity:1;stroke-dashoffset:0"
       d="m 408.10162,72.848114 14.14214,4.04061 0.50508,102.025406 -14.14214,-1.01015 z"
       id="rect3881"
       inkscape:connector-curvature="0"
       sodipodi:nodetypes="ccccc" />
    <path
       style="fill:#f2f2f2;fill-opacity:1;stroke:#000000;stroke-width:2.5;stroke-linecap:round;stroke-miterlimit:4;stroke-opacity:1;stroke-dashoffset:0"
       d="m 197.85715,108.38019 210,-34.999999 0.71428,102.142859 -209.99999,8.92856 z"
       id="rect3878"
       inkscape:connector-curvature="0"
       sodipodi:nodetypes="ccccc"
       transform="translate(0,308.26769)" />
    <path
       style="fill:#008000;stroke:#000000;stroke-width:2.5;stroke-linecap:round;stroke-miterlimit:4;stroke-opacity:1;stroke-dasharray:none;stroke-dashoffset:0"
       d="M 405.97564,656.6479 664.08293,698.07647 406.9533,782.36217 101.42857,716.64789 z"
       id="rect3006"
       inkscape:connector-curvature="0"
       sodipodi:nodetypes="ccccc" />
    <path
       style="fill:#ffe6d5;stroke:#000000;stroke-width:2.5;stroke-miterlimit:4;stroke-dasharray:none"
       d="m 406.71074,485.6666 175.24707,20 0,200.6701 -175.24707,45 z"
       id="rect2985"
       inkscape:connector-curvature="0"
       sodipodi:nodetypes="ccccc" />
    <path
       style="fill:#ffccaa;stroke:#000000;stroke-width:2.5;stroke-miterlimit:4;stroke-dasharray:none"
       d="m 406.83208,485.95569 -229.05129,20 0,200.6701 229.05129,45 z"
       id="rect2985-1"
       inkscape:connector-curvature="0"
       sodipodi:nodetypes="ccccc" />
    <path
       style="fill:#000000;stroke:#000000;stroke-width:2.50000000000000000;stroke-miterlimit:4;stroke-dasharray:none"
       d="m 387.38279,513.81283 -191.90844,-4.28571 2.14286,138.52724 189.76558,22.14286 z"
       id="rect2985-1-5"
       inkscape:connector-curvature="0"
       sodipodi:nodetypes="ccccc" />
    <path
       style="fill:#ff8080;fill-opacity:1;stroke:#000000;stroke-width:2.5;stroke-linecap:round;stroke-miterlimit:4;stroke-opacity:1;stroke-dasharray:none;stroke-dashoffset:0"
       d="m 160.95429,528.4336 29.3326,-41.07143 37.67636,-1.60714 1.29687,17.67857 -29.33037,25.53571 -11.29911,17.67857 -27.7701,1.78572 z"
       id="rect3009-4-49"
       inkscape:connector-curvature="0"
       sodipodi:nodetypes="cccccccc" />
    <path
       style="fill:#ffffff;fill-opacity:1;stroke:#000000;stroke-width:2.5;stroke-linecap:round;stroke-miterlimit:4;stroke-opacity:1;stroke-dasharray:none;stroke-dashoffset:0"
       d="m 189.311,526.29074 29.33261,-39.64285 36.56697,-1.96428 0.0558,43.74999 -25.90849,-2.32143 -12.1451,18.74999 -26.92412,1.78573 z"
       id="rect3009-4-0"
       inkscape:connector-curvature="0"
       sodipodi:nodetypes="cccccccc" />
    <path
       style="fill:#ff8080;fill-opacity:1;stroke:#000000;stroke-width:2.5;stroke-linecap:round;stroke-miterlimit:4;stroke-opacity:1;stroke-dasharray:none;stroke-dashoffset:0"
       d="m 216.69003,524.86217 30.76118,-39.64285 36.94199,-2.32143 -19.74109,31.24999 -6.84376,13.39286 -15.79242,17.32142 -25.06251,0.35716 z"
       id="rect3009-4-7"
       inkscape:connector-curvature="0"
       sodipodi:nodetypes="cccccccc" />
    <path
       style="fill:#ffffff;fill-opacity:1;stroke:#000000;stroke-width:2.5;stroke-linecap:round;stroke-miterlimit:4;stroke-opacity:1;stroke-dasharray:none;stroke-dashoffset:0"
       d="m 242.10969,523.07646 32.18975,-40.00001 28.7835,-0.89285 -19.85493,27.67857 0,17.67857 -15.34152,16.25 -25.51341,1.42858 z"
       id="rect3009-4-6"
       inkscape:connector-curvature="0"
       sodipodi:nodetypes="cccccccc" />
    <path
       style="fill:#ff8080;fill-opacity:1;stroke:#000000;stroke-width:2.5;stroke-linecap:round;stroke-miterlimit:4;stroke-opacity:1;stroke-dasharray:none;stroke-dashoffset:0"
       d="m 267.1981,521.64788 29.33261,-39.28571 32.43081,-1.60715 -22.07367,31.25 0,17.67857 -14.49554,13.03571 -24.93081,1.78572 z"
       id="rect3009-4-8"
       inkscape:connector-curvature="0"
       sodipodi:nodetypes="cccccccc" />
    <path
       style="fill:#ffffff;fill-opacity:1;stroke:#000000;stroke-width:2.5;stroke-linecap:round;stroke-miterlimit:4;stroke-opacity:1;stroke-dasharray:none;stroke-dashoffset:0"
       d="m 292.39232,520.21931 29.3326,-38.57142 31.67859,-1.25001 -20.60716,32.32143 0,17.67857 -15.43528,11.96429 -24.70536,0.71429 z"
       id="rect3009-4-4"
       inkscape:connector-curvature="0"
       sodipodi:nodetypes="cccccccc" />
    <path
       style="fill:#ff8080;fill-opacity:1;stroke:#000000;stroke-width:2.5;stroke-linecap:round;stroke-miterlimit:4;stroke-opacity:1;stroke-dasharray:none;stroke-dashoffset:0"
       d="m 317.38697,517.50503 33.26118,-37.14286 40.47546,-1.96429 -22.26118,33.75 -11.42857,18.39286 -18.36832,10.17857 -21.77232,1.07143 z"
       id="rect3009-4"
       inkscape:connector-curvature="0"
       sodipodi:nodetypes="cccccccc" />
    <path
       style="fill:#ffffff;fill-opacity:1;stroke:#000000;stroke-width:2.5;stroke-linecap:round;stroke-miterlimit:4;stroke-opacity:1;stroke-dasharray:none;stroke-dashoffset:0"
       d="m 339.00172,516.4336 32.18975,-36.78571 33.95314,-1.60714 -23.95314,34.10714 0,17.67857 -14.36385,10.53572 -27.91965,0.71428 z"
       id="rect3009-4-3"
       inkscape:connector-curvature="0"
       sodipodi:nodetypes="cccccccc" />
    <path
       style="fill:#ff8080;fill-opacity:1;stroke:#000000;stroke-width:2.5;stroke-linecap:round;stroke-miterlimit:4;stroke-opacity:1;stroke-dasharray:none;stroke-dashoffset:0"
       d="m 366.74081,514.50502 31.11832,-35.71429 11.25,-1.42857 -2.67857,65.35714 -39.42635,-2.14285 z"
       id="rect3009"
       inkscape:connector-curvature="0"
       sodipodi:nodetypes="cccccc" />
    <g
       transform="matrix(1.2746564,0,0,2.4154205,-54.671431,-590.05156)"
       style="font-size:25.05066109px;font-style:normal;font-weight:normal;line-height:125%;letter-spacing:0px;word-spacing:0px;fill:#000000;fill-opacity:1;stroke:none;font-family:Helvetica;-inkscape-font-specification:Helvetica"
       id="flowRoot3893"
       inkscape:path-effect="#path-effect3941">
      <path
         d="m 203.77915,442.67136 c 0.30195,-7.47127 0.28788,-14.92614 -0.0422,-22.36462 l 2.31872,-0.18482 c 0.29626,6.59676 0.34668,13.20626 0.15128,19.82853 l 8.68673,-0.28502 c -0.0236,0.90401 -0.0516,1.80824 -0.084,2.71271 z"
         id="path3923"
         inkscape:original-d="m 203.54517,437.62134 0,-17.93177 2.37296,0 0,15.81567 8.83134,0 0,2.1161 -11.2043,0"
         inkscape:connector-curvature="0" />
      <path
         d="m 217.0616,431.08253 c -0.0192,-3.82672 0.67443,-6.8616 2.15599,-9.14365 1.48115,-2.29255 3.43523,-3.55495 5.90503,-3.75417 1.6173,-0.13042 3.10286,0.2696 4.45033,1.21413 1.34745,0.94459 2.39992,2.33798 3.13887,4.18028 0.74656,1.83094 1.14209,3.94996 1.16847,6.34508 0.0267,2.42779 -0.33831,4.61969 -1.08045,6.56117 -0.74218,1.9415 -1.79843,3.42333 -3.14862,4.44514 -1.34994,1.01103 -2.79617,1.53 -4.32971,1.56939 -1.66203,0.0427 -3.12817,-0.45401 -4.40526,-1.4756 -1.2771,-1.02159 -2.22955,-2.42884 -2.87516,-4.2224 -0.6456,-1.79352 -0.96935,-3.69592 -0.97949,-5.71937 z m 2.39993,-0.0782 c 0.0156,2.79358 0.55673,4.97149 1.66731,6.5503 1.11877,1.56794 2.53169,2.33451 4.25649,2.27991 1.75687,-0.0556 3.22383,-0.92738 4.37729,-2.63292 1.16144,-1.70583 1.74981,-4.10184 1.71806,-7.16657 -0.0201,-1.93843 -0.30005,-3.61352 -0.82614,-5.01891 -0.51843,-1.41667 -1.26478,-2.4836 -2.22784,-3.20094 -0.95551,-0.72862 -2.01325,-1.04601 -3.16945,-0.95981 -1.64263,0.12248 -3.02391,0.98411 -4.16423,2.56753 -1.13269,1.57233 -1.65101,4.09209 -1.63149,7.58141 z"
         id="path3925"
         inkscape:original-d="m 216.86556,428.88786 c 0,-2.97639 0.79914,-5.3045 2.39743,-6.98434 1.59828,-1.68797 3.66137,-2.53196 6.18928,-2.53198 1.65535,2e-5 3.14762,0.39551 4.47682,1.18648 1.32917,0.79101 2.34033,1.89594 3.03348,3.31481 0.70127,1.41074 1.05191,3.0131 1.05193,4.80709 -2e-5,1.81846 -0.36697,3.44528 -1.10086,4.88047 -0.73392,1.4352 -1.77362,2.52383 -3.1191,3.26588 -1.3455,0.73391 -2.79701,1.10086 -4.35451,1.10086 -1.68799,0 -3.19657,-0.40772 -4.52575,-1.22317 -1.32919,-0.81545 -2.33627,-1.92854 -3.02125,-3.33928 -0.68498,-1.41072 -1.02747,-2.903 -1.02747,-4.47682 m 2.44636,0.0367 c -10e-6,2.16095 0.57896,3.86525 1.73691,5.11288 1.16609,1.23949 2.62574,1.85923 4.37897,1.85923 1.78583,0 3.25364,-0.6279 4.40344,-1.88369 1.15792,-1.25579 1.73689,-3.03755 1.73691,-5.34529 -2e-5,-1.45964 -0.24873,-2.73174 -0.74614,-3.81631 -0.48928,-1.09269 -1.21096,-1.93668 -2.16502,-2.53197 -0.94594,-0.60342 -2.0101,-0.90514 -3.19249,-0.90515 -1.67984,10e-6 -3.12726,0.57898 -4.34228,1.73691 -1.20687,1.1498 -1.81031,3.07426 -1.8103,5.77339"
         inkscape:connector-curvature="0" />
      <path
         d="m 249.45222,432.76723 c 0.77779,0.24098 1.55542,0.48334 2.3329,0.72709 -0.48278,2.72746 -1.39247,4.82383 -2.69339,6.2825 -1.29273,1.44717 -2.86652,2.18619 -4.70517,2.23341 -1.90289,0.0489 -3.43712,-0.44603 -4.60905,-1.47197 -1.16366,-1.03721 -2.03893,-2.54839 -2.64705,-4.53252 -0.60011,-1.98443 -0.90883,-4.11973 -0.93726,-6.41758 -0.031,-2.50571 0.25945,-4.7064 0.89032,-6.61592 0.63846,-1.92099 1.56621,-3.41584 2.80233,-4.48478 1.24353,-1.08053 2.63373,-1.68916 4.17937,-1.81379 1.75275,-0.14127 3.26243,0.36356 4.52005,1.52958 1.25759,1.16606 2.17301,2.88193 2.72034,5.14473 -0.75407,0.30381 -1.50862,0.6064 -2.26365,0.90777 -0.46192,-1.77324 -1.10586,-3.03973 -1.91408,-3.80132 -0.80825,-0.76156 -1.80036,-1.09548 -2.97251,-1.00809 -1.3476,0.10049 -2.45456,0.63438 -3.32783,1.59398 -0.8653,0.95908 -1.4551,2.20258 -1.77981,3.73354 -0.32502,1.51997 -0.47636,3.07467 -0.45545,4.66958 0.0269,2.05693 0.24627,3.84522 0.67242,5.37071 0.43422,1.51414 1.10043,2.63794 2.01154,3.37099 0.91111,0.73305 1.90253,1.08609 2.97752,1.05206 1.30763,-0.0414 2.42492,-0.60142 3.34279,-1.68886 0.91784,-1.08742 1.54373,-2.68243 1.85567,-4.78111 z"
         id="path3927"
         inkscape:original-d="m 249.85464,431.33421 2.37297,0.59936 c -0.49745,1.94893 -1.39444,3.43713 -2.69099,4.46459 -1.28843,1.01932 -2.86633,1.52897 -4.7337,1.52897 -1.93262,0 -3.50644,-0.39141 -4.72146,-1.17425 -1.20687,-0.79098 -2.12833,-1.93261 -2.76438,-3.42489 -0.6279,-1.49227 -0.94185,-3.09463 -0.94185,-4.80709 0,-1.86737 0.35472,-3.49419 1.06417,-4.88047 0.71759,-1.39441 1.73283,-2.45042 3.04571,-3.16803 1.32102,-0.72573 2.77252,-1.08861 4.35451,-1.08863 1.79398,2e-5 3.30256,0.45667 4.52575,1.36996 1.22316,0.91332 2.07531,2.19766 2.55644,3.85301 l -2.33627,0.55043 c -0.41589,-1.30471 -1.01932,-2.25471 -1.8103,-2.85 -0.791,-0.59527 -1.78585,-0.89291 -2.98455,-0.89292 -1.37812,1e-5 -2.53198,0.33027 -3.46159,0.99077 -0.92146,0.66053 -1.56975,1.54937 -1.94485,2.66653 -0.37511,1.10902 -0.56267,2.25473 -0.56266,3.43712 -10e-6,1.5249 0.22017,2.85816 0.66051,3.99979 0.4485,1.13348 1.14163,1.98155 2.0794,2.54421 0.93777,0.56266 1.953,0.84399 3.04571,0.84399 1.32918,0 2.4545,-0.38326 3.37597,-1.14979 0.92145,-0.76652 1.54527,-1.90407 1.87146,-3.41266"
         inkscape:connector-curvature="0" />
      <path
         d="m 252.65798,441.37202 c 2.44022,-8.38716 4.54755,-16.87661 6.322,-25.46838 l 2.49801,-0.1991 c 2.86528,8.26653 5.43253,16.67595 7.70174,25.22828 l -2.6613,0.0707 c -0.64223,-2.57723 -1.3119,-5.14204 -2.009,-7.69443 l -7.36512,0.31366 c -0.6381,2.56987 -1.30665,5.13097 -2.00565,7.68328 z m 5.14046,-10.49532 5.96657,-0.28819 c -0.64183,-2.32655 -1.30664,-4.6429 -1.99441,-6.94907 -0.62906,-2.10152 -1.12035,-3.82285 -1.45724,-5.17258 -0.14536,1.6396 -0.39497,3.2728 -0.74875,4.89684 -0.56012,2.51288 -1.14884,5.01722 -1.76617,7.513 z"
         id="path3929"
         inkscape:original-d="m 253.19391,437.62134 6.88649,-17.93177 2.55644,0 7.33906,17.93177 -2.70322,0 -2.09163,-5.43091 -7.49808,0 -1.96931,5.43091 -2.51975,0 m 5.17404,-7.36353 6.07919,0 -1.87146,-4.96609 c -0.57082,-1.50857 -0.99486,-2.74806 -1.2721,-3.71846 -0.22834,1.1498 -0.55044,2.29143 -0.96631,3.42489 l -1.96932,5.25966"
         inkscape:connector-curvature="0" />
      <path
         d="m 270.974,440.88512 c 0.13474,-8.64776 -0.0465,-17.27913 -0.54382,-25.8941 l 2.31873,-0.18482 c 0.44373,7.63441 0.64163,15.28158 0.5937,22.94149 l 8.68672,-0.28501 c -0.004,1.04284 -0.0121,2.08591 -0.0248,3.12921 z"
         id="path3931"
         inkscape:original-d="m 271.79843,437.62134 0,-17.93177 2.37297,0 0,15.81567 8.83133,0 0,2.1161 -11.2043,0"
         inkscape:connector-curvature="0" />
      <path
         d="m 289.9148,431.73135 c 0.73154,-0.12981 1.46299,-0.26005 2.19434,-0.3907 0.12329,1.34712 0.37258,2.44998 0.75431,3.30989 0.38967,0.84732 0.98436,1.529 1.7868,2.04586 0.80242,0.5045 1.70445,0.74262 2.70721,0.71059 0.89042,-0.0285 1.67683,-0.25868 2.35791,-0.69306 0.68105,-0.43438 1.18461,-1.01439 1.50882,-1.73954 0.33213,-0.73794 0.49334,-1.53368 0.48284,-2.38506 -0.0107,-0.8639 -0.18294,-1.60831 -0.51461,-2.23158 -0.33191,-0.63575 -0.87146,-1.15441 -1.61718,-1.55503 -0.4784,-0.26382 -1.53258,-0.65546 -3.16308,-1.16768 -1.63081,-0.52457 -2.7773,-1.03101 -3.43978,-1.52487 -0.85852,-0.63105 -1.51076,-1.42994 -1.96004,-2.3979 -0.44171,-0.98064 -0.68714,-2.08702 -0.73988,-3.32262 -0.058,-1.3579 0.13226,-2.64039 0.57263,-3.85286 0.43972,-1.22465 1.12016,-2.1822 2.04741,-2.87288 0.92724,-0.69064 1.97895,-1.08605 3.15808,-1.18114 1.29864,-0.10466 2.46306,0.13125 3.49162,0.71352 1.03574,0.56923 1.85878,1.4722 2.46238,2.70951 0.60358,1.23737 0.96367,2.66621 1.07402,4.28145 -0.73879,0.1358 -1.47766,0.27123 -2.21661,0.40629 -0.19345,-1.72817 -0.66677,-3.01086 -1.40686,-3.8452 -0.73213,-0.83485 -1.77385,-1.19943 -3.12146,-1.09921 -1.40345,0.1044 -2.40551,0.58194 -3.01055,1.42828 -0.5977,0.8335 -0.87056,1.80699 -0.82166,2.92506 0.0425,0.97068 0.30139,1.75465 0.78035,2.35422 0.47098,0.60013 1.66031,1.176 3.56892,1.73619 1.91617,0.54738 3.23356,1.05563 3.95215,1.51692 1.0455,0.68124 1.82784,1.58164 2.34254,2.69972 0.51439,1.10554 0.78463,2.40239 0.8049,3.88606 0.0201,1.47111 -0.23736,2.87192 -0.77063,4.19628 -0.53335,1.3118 -1.31072,2.34487 -2.32577,3.09852 -1.00697,0.74093 -2.14261,1.12457 -3.40316,1.15695 -1.5978,0.041 -2.93493,-0.28451 -4.01341,-0.96975 -1.07047,-0.68545 -1.9104,-1.7299 -2.52856,-3.13189 -0.61013,-1.4145 -0.93879,-3.01703 -0.99399,-4.81434 z"
         id="path3933"
         inkscape:original-d="m 291.05124,431.86018 2.23841,-0.19571 c 0.10601,0.897 0.35065,1.63498 0.73391,2.21395 0.39141,0.57082 0.99485,1.03562 1.8103,1.39442 0.81545,0.35065 1.73283,0.52597 2.75215,0.52597 0.90514,0 1.70428,-0.13455 2.39743,-0.40365 0.69312,-0.2691 1.20685,-0.63605 1.5412,-1.10086 0.34248,-0.47296 0.51372,-0.98669 0.51373,-1.5412 -10e-6,-0.56266 -0.1631,-1.05193 -0.48927,-1.46782 -0.32619,-0.42402 -0.86439,-0.77875 -1.61459,-1.06416 -0.48113,-0.18755 -1.54529,-0.47703 -3.19249,-0.86846 -1.64722,-0.39956 -2.80108,-0.77467 -3.46159,-1.12532 -0.85623,-0.44849 -1.49636,-1.00299 -1.92039,-1.66352 -0.41588,-0.66866 -0.62382,-1.41479 -0.62382,-2.23841 0,-0.90514 0.25687,-1.74913 0.7706,-2.53198 0.51373,-0.79097 1.26395,-1.39033 2.25065,-1.79807 0.98669,-0.40771 2.08347,-0.61157 3.29034,-0.61159 1.32918,2e-5 2.49935,0.21612 3.51052,0.64829 1.0193,0.42405 1.80213,1.05195 2.3485,1.88369 0.54634,0.83177 0.8399,1.77362 0.88069,2.82554 l -2.27511,0.17124 c -0.12233,-1.13346 -0.53821,-1.98968 -1.24764,-2.56867 -0.7013,-0.57895 -1.741,-0.86844 -3.1191,-0.86845 -1.4352,10e-6 -2.48306,0.26503 -3.14357,0.79506 -0.65236,0.5219 -0.97854,1.15388 -0.97854,1.89592 0,0.64422 0.2324,1.17427 0.69721,1.59013 0.45665,0.4159 1.64721,0.84401 3.57168,1.28434 1.93261,0.4322 3.25771,0.81138 3.97532,1.13755 1.04377,0.48113 1.81437,1.09272 2.31181,1.83477 0.49741,0.73391 0.74612,1.58198 0.74613,2.54421 -1e-5,0.95408 -0.27319,1.85515 -0.81952,2.70322 -0.54637,0.83991 -1.33328,1.49635 -2.36074,1.96931 -1.01932,0.46481 -2.16911,0.69721 -3.44935,0.69721 -1.62276,0 -2.98456,-0.23648 -4.08541,-0.70944 -1.09271,-0.47296 -1.95301,-1.1824 -2.58091,-2.12833 -0.61974,-0.95407 -0.94592,-2.03047 -0.97854,-3.22918"
         inkscape:connector-curvature="0" />
      <path
         d="m 307.26885,439.92029 c 0.0444,-9.28324 -0.22716,-18.55008 -0.81476,-27.80052 l 2.31873,-0.18482 c 0.24368,3.81541 0.43407,7.63359 0.57117,11.45452 l 9.1357,-0.52798 c -0.14648,-3.88692 -0.34625,-7.77106 -0.59931,-11.65245 l 2.31873,-0.18481 c 0.62206,9.49291 0.92811,19.00222 0.91815,28.52793 l -2.33618,0.0621 c 0.007,-4.47067 -0.0553,-8.93769 -0.18831,-13.40107 l -9.14378,0.47111 c 0.12222,4.38765 0.17423,8.77895 0.15603,13.17389 z"
         id="path3935"
         inkscape:original-d="m 308.66498,437.62134 0,-17.93177 2.37297,0 0,7.36352 9.3206,0 0,-7.36352 2.37297,0 0,17.93177 -2.37297,0 0,-8.45215 -9.3206,0 0,8.45215 -2.37297,0"
         inkscape:connector-curvature="0" />
      <path
         d="m 324.08649,425.47917 c -0.15228,-4.76321 0.43723,-8.53062 1.84366,-11.34122 1.40566,-2.82365 3.322,-4.35161 5.7918,-4.55084 1.6173,-0.13041 3.12055,0.39405 4.5034,1.58745 1.38282,1.19348 2.4847,2.93452 3.2871,5.22326 0.80964,2.27482 1.27682,4.89801 1.38343,7.8576 0.10803,2.99996 -0.18424,5.70372 -0.86221,8.09677 -0.67799,2.39308 -1.68556,4.21743 -3.00258,5.47273 -1.31712,1.24194 -2.74694,1.87638 -4.28048,1.91577 -1.66202,0.0427 -3.14641,-0.58231 -4.45997,-1.86047 -1.31356,-1.27816 -2.31579,-3.03564 -3.02446,-5.27307 -0.70869,-2.2374 -1.09918,-4.60934 -1.17969,-7.12798 z m 2.40156,-0.0666 c 0.11226,3.47351 0.72958,6.18767 1.89595,8.15904 1.17419,1.95793 2.61483,2.91949 4.33964,2.86489 1.75686,-0.0556 3.19574,-1.12494 4.29304,-3.2256 1.10529,-2.10096 1.61399,-5.05758 1.47903,-8.84843 -0.0854,-2.3977 -0.42219,-4.47304 -0.99679,-6.21969 -0.5673,-1.76047 -1.35138,-3.09296 -2.34106,-3.9976 -0.98249,-0.91848 -2.05373,-1.3308 -3.20994,-1.24461 -1.64263,0.12249 -2.99801,1.16628 -4.08656,3.11403 -1.08127,1.93411 -1.51352,5.05939 -1.37331,9.39797 z"
         id="path3937"
         inkscape:original-d="m 325.97294,428.88786 c 0,-2.97639 0.79914,-5.3045 2.39743,-6.98434 1.59827,-1.68797 3.66136,-2.53196 6.18927,-2.53198 1.65535,2e-5 3.14763,0.39551 4.47683,1.18648 1.32917,0.79101 2.34033,1.89594 3.03348,3.31481 0.70127,1.41074 1.05191,3.0131 1.05193,4.80709 -2e-5,1.81846 -0.36697,3.44528 -1.10086,4.88047 -0.73392,1.4352 -1.77362,2.52383 -3.1191,3.26588 -1.34551,0.73391 -2.79701,1.10086 -4.35451,1.10086 -1.68799,0 -3.19658,-0.40772 -4.52576,-1.22317 -1.32919,-0.81545 -2.33627,-1.92854 -3.02124,-3.33928 -0.68498,-1.41072 -1.02747,-2.903 -1.02747,-4.47682 m 2.44635,0.0367 c 0,2.16095 0.57897,3.86525 1.73691,5.11288 1.16609,1.23949 2.62575,1.85923 4.37898,1.85923 1.78582,0 3.25363,-0.6279 4.40343,-1.88369 1.15793,-1.25579 1.7369,-3.03755 1.73691,-5.34529 -1e-5,-1.45964 -0.24872,-2.73174 -0.74613,-3.81631 -0.48929,-1.09269 -1.21096,-1.93668 -2.16503,-2.53197 -0.94593,-0.60342 -2.0101,-0.90514 -3.19249,-0.90515 -1.67984,10e-6 -3.12726,0.57898 -4.34228,1.73691 -1.20687,1.1498 -1.8103,3.07426 -1.8103,5.77339"
         inkscape:connector-curvature="0" />
      <path
         d="m 344.1899,438.93882 c -0.0475,-9.92968 -0.41091,-19.84296 -1.09038,-29.73984 l 6.60956,-0.52681 c 1.16334,-0.0927 2.05847,-0.0677 2.68538,0.0758 0.87772,0.17894 1.63183,0.59664 2.26054,1.25475 0.62778,0.64441 1.15788,1.58245 1.58525,2.81472 0.43533,1.23176 0.69425,2.6034 0.77312,4.11158 0.13524,2.58747 -0.24547,4.81119 -1.1281,6.65697 -0.88319,1.83199 -2.57764,2.80157 -5.06677,2.92126 l -4.51409,0.21705 c 0.12611,4.0481 0.2,8.09891 0.22165,12.15243 z m 1.99148,-15.73897 4.54608,-0.24708 c 1.50336,-0.0817 2.55256,-0.61992 3.14259,-1.61924 0.59003,-0.9993 0.84446,-2.37659 0.75409,-4.12658 -0.0655,-1.26767 -0.31385,-2.3369 -0.741,-3.20524 -0.41999,-0.88259 -0.9436,-1.44519 -1.56756,-1.6892 -0.40185,-0.14989 -1.12917,-0.18593 -2.18188,-0.1087 l -4.48606,0.32925 c 0.21829,3.5535 0.3962,7.1091 0.53374,10.66679 z"
         id="path3939"
         inkscape:original-d="m 346.16759,437.62134 0,-17.93177 6.76417,0 c 1.19055,2e-5 2.09977,0.0571 2.72768,0.17124 0.88068,0.1468 1.61866,0.42813 2.21395,0.84399 0.59527,0.40775 1.07231,0.98264 1.43112,1.72468 0.36694,0.74208 0.55041,1.55753 0.55043,2.44636 -2e-5,1.5249 -0.48521,2.81739 -1.45558,3.87747 -0.9704,1.05194 -2.72362,1.5779 -5.25966,1.5779 l -4.59915,0 0,7.29013 -2.37296,0 m 2.37296,-9.40623 4.63584,0 c 1.53304,1e-5 2.62167,-0.2854 3.26588,-0.85622 0.6442,-0.57081 0.9663,-1.37403 0.96631,-2.40966 -10e-6,-0.7502 -0.19164,-1.39033 -0.57489,-1.92039 -0.37512,-0.53818 -0.87254,-0.8929 -1.49227,-1.06416 -0.39959,-0.106 -1.13757,-0.159 -2.21395,-0.15902 l -4.58692,0 0,6.40945"
         inkscape:connector-curvature="0" />
    </g>
    <g
       transform="scale(0.88494879,1.1300089)"
       style="font-size:34.92807388px;font-style:normal;font-weight:normal;line-height:125%;letter-spacing:0px;word-spacing:0px;fill:#ff0000;fill-opacity:1;stroke:none;font-family:Helvetica;-inkscape-font-specification:Helvetica"
       id="text3943"
       inkscape:path-effect="#path-effect3985">
      <path
         d="m 507.62719,531.72525 c -0.006,-4.68884 0.0194,-9.54963 0.15908,-14.83579 0.13965,-5.28616 0.39318,-10.99769 0.93705,-17.3888 1.10458,-0.0121 2.20857,-0.0199 3.31201,-0.0236 -0.45572,5.22827 -0.71131,10.00922 -0.86973,14.48033 4.30856,-0.0619 8.61086,-0.0809 12.90889,-0.0643 0.17398,-4.43861 0.45197,-9.15685 0.93895,-14.27882 1.09944,0.026 2.19843,0.0555 3.29697,0.0882 -0.60121,6.19649 -0.89225,11.8109 -1.0551,17.06104 -0.16286,5.25014 -0.19753,10.13602 -0.19133,14.87464 -1.09136,6.1e-4 -2.1829,0.002 -3.27467,0.004 -0.006,-4.46599 0.0237,-9.06655 0.15994,-13.98863 -4.29453,-0.004 -8.59285,0.022 -12.89711,0.0852 -0.12269,4.94071 -0.14732,9.52516 -0.14093,13.9605 -1.09425,0.008 -2.18891,0.0167 -3.28402,0.0263 z"
         style="text-align:center;text-anchor:middle"
         id="path3961"
         inkscape:original-d="m 508.13101,532.91779 0,-25.00223 3.30861,0 0,10.26694 12.9957,0 0,-10.26694 3.30862,0 0,25.00223 -3.30862,0 0,-11.78482 -12.9957,0 0,11.78482 -3.30861,0" />
      <path
         d="m 531.72085,517.2035 c 0.15935,-5.18843 1.53362,-9.59291 4.01172,-12.79909 2.47937,-3.22204 5.54463,-4.82856 9.04393,-4.62864 2.29146,0.13097 4.26314,1.05905 5.94762,2.69292 1.68443,1.63391 2.88793,3.79772 3.66505,6.40736 0.78936,2.59545 1.12372,5.41372 1.01662,8.44034 -0.10862,3.06794 -0.66239,5.70215 -1.70293,7.99292 -1.0406,2.29078 -2.47986,3.9908 -4.33776,5.14618 -1.85794,1.14254 -3.85799,1.70775 -6.00558,1.69872 -2.32752,-0.01 -4.40939,-0.65548 -6.24051,-1.95969 -1.83114,-1.3042 -3.21535,-3.08956 -4.13436,-5.41314 -0.91902,-2.32357 -1.34805,-4.83437 -1.2638,-7.57788 z m 3.37633,0.10149 c -0.11689,3.75103 0.65129,6.55975 2.22961,8.60086 1.58969,2.02794 3.60191,3.01811 6.01977,3.03429 2.46281,0.0165 4.48796,-0.95902 6.09488,-2.96031 1.61813,-2.00113 2.45047,-4.85873 2.5882,-8.77731 0.0871,-2.4785 -0.1448,-4.71702 -0.71219,-6.68983 -0.55528,-1.98692 -1.43095,-3.59728 -2.65719,-4.77999 -1.21376,-1.19747 -2.63023,-1.85769 -4.26552,-1.93422 -2.32327,-0.10867 -4.43478,0.94722 -6.27194,3.09179 -1.82479,2.12951 -2.87964,5.72948 -3.02562,10.41472 z"
         style="text-align:center;text-anchor:middle"
         id="path3963"
         inkscape:original-d="m 532.26344,520.74071 c 0,-4.14996 1.11424,-7.39604 3.34273,-9.73824 2.22848,-2.35353 5.10504,-3.53031 8.62969,-3.53033 2.30806,2e-5 4.38873,0.55146 6.24203,1.65431 1.85326,1.10289 3.26311,2.6435 4.22957,4.62183 0.97778,1.96699 1.46668,4.20116 1.46671,6.7025 -3e-5,2.53548 -0.51167,4.80376 -1.53493,6.80484 -1.02331,2.00109 -2.47296,3.51896 -4.34895,4.55361 -1.87604,1.02328 -3.89987,1.53492 -6.07149,1.53492 -2.35356,0 -4.45697,-0.56849 -6.31024,-1.70547 -1.85329,-1.13698 -3.25746,-2.68896 -4.21252,-4.65594 -0.95507,-1.96697 -1.4326,-4.04764 -1.4326,-6.24203 m 3.41095,0.0512 c -10e-6,3.01301 0.80725,5.3893 2.42177,7.12887 1.62587,1.72822 3.66107,2.59232 6.10559,2.59232 2.48997,0 4.53654,-0.87547 6.1397,-2.62643 1.61449,-1.75094 2.42175,-4.23524 2.42177,-7.45291 -2e-5,-2.03518 -0.3468,-3.80887 -1.04034,-5.32108 -0.68221,-1.52353 -1.68843,-2.70031 -3.01868,-3.53032 -1.31892,-0.84135 -2.80268,-1.26203 -4.45129,-1.26205 -2.34219,2e-5 -4.36033,0.80728 -6.05442,2.42177 -1.68274,1.60316 -2.52411,4.28643 -2.5241,8.04983" />
      <path
         d="m 559.28957,531.77461 c 4.8e-4,-4.63412 0.0421,-9.37438 0.22132,-14.37729 0.17923,-5.00292 0.4961,-10.2685 1.14179,-15.95409 1.64401,0.11943 3.28757,0.24222 4.93074,0.36775 1.03812,8.07068 2.7253,15.20672 4.57142,21.93659 0.51043,1.8801 0.89487,3.25773 1.13683,4.16965 0.28917,-1.00451 0.74104,-2.48217 1.37368,-4.45859 2.0941,-6.50274 4.336,-13.26659 7.19281,-20.5022 1.46741,0.12185 2.93472,0.24447 4.40197,0.36744 -0.62781,5.23029 -0.92447,10.15937 -1.08788,14.9003 -0.16342,4.74094 -0.1936,9.29372 -0.19379,13.7706 -1.05888,-0.0106 -2.11721,-0.0213 -3.17502,-0.0318 7e-4,-3.76598 0.0255,-7.58798 0.12986,-11.53525 0.10437,-3.94726 0.28832,-8.01979 0.65379,-12.28722 -1.5647,4.18899 -2.95222,8.23237 -4.26147,12.17389 -1.30925,3.94153 -2.54021,7.78119 -3.74391,11.57785 -0.98792,-0.009 -1.97547,-0.0188 -2.96269,-0.028 -1.19466,-3.90144 -2.35993,-7.88895 -3.43734,-12.06404 -1.0774,-4.17509 -2.06696,-8.53776 -2.86392,-13.20619 -0.39633,4.59712 -0.60073,8.93405 -0.71868,13.10409 -0.11794,4.17005 -0.14943,8.1732 -0.15022,12.10236 -1.05337,-0.009 -2.10646,-0.0175 -3.15929,-0.0259 z"
         style="text-align:center;text-anchor:middle"
         id="path3965"
         inkscape:original-d="m 560.31846,532.91779 0,-25.00223 4.97998,0 5.91799,17.7028 c 0.54574,1.64863 0.94368,2.88226 1.19383,3.70088 0.28423,-0.90958 0.72766,-2.24553 1.33027,-4.00786 l 5.98621,-17.39582 4.45128,0 0,25.00223 -3.18923,0 0,-20.92615 -7.26531,20.92615 -2.98458,0 -7.2312,-21.2843 0,21.2843 -3.18924,0" />
      <path
         d="m 588.40252,532.04933 c -0.001,-4.43797 0.0232,-8.94495 0.17869,-13.62308 0.15553,-4.67812 0.44195,-9.5274 1.05872,-14.65077 5.95881,0.50014 11.91797,0.99709 17.8814,1.46155 -0.13205,1.12654 -0.24563,2.24283 -0.34391,3.34978 -4.88583,-0.31763 -9.7662,-0.65492 -14.64348,-0.9974 -0.28346,3.02734 -0.46236,5.96661 -0.58181,8.84004 4.58647,0.19528 9.18021,0.38719 13.78368,0.56706 -0.0378,1.06107 -0.0672,2.11507 -0.0902,3.16292 -4.61252,-0.14396 -9.21371,-0.29828 -13.80618,-0.45551 -0.0872,3.14096 -0.11828,6.21111 -0.12891,9.24074 5.11008,0.0778 10.23477,0.15361 15.37841,0.2222 4.7e-4,1.02322 0.003,2.04302 0.006,3.06029 -6.25781,-0.0541 -12.48591,-0.11551 -18.6925,-0.17782 z"
         style="text-align:center;text-anchor:middle"
         id="path3967"
         inkscape:original-d="m 589.61847,532.91779 0,-25.00223 18.07801,0 0,2.95047 -14.76939,0 0,7.65757 13.83138,0 0,2.93341 -13.83138,0 0,8.51031 15.34925,0 0,2.95047 -18.65787,0" />
      <path
         d="m 476.48574,582.97206 c -1.09227,-6.64385 -1.69235,-12.40404 -2.05863,-17.59397 -0.36628,-5.18994 -0.49877,-9.80961 -0.5612,-14.17324 2.92337,0.16048 5.83676,0.30451 8.74128,0.43334 1.96701,0.0873 3.46714,0.2767 4.50605,0.5803 1.45433,0.42011 2.70292,1.1263 3.75438,2.1403 1.36996,1.30816 2.42083,2.97894 3.17998,5.07087 0.76987,2.07902 1.24861,4.50338 1.48728,7.36873 0.20332,2.44143 0.21118,4.6974 -6.6e-4,6.71418 -0.21188,2.01679 -0.55165,3.75136 -1.05305,5.14127 -0.50388,1.37302 -1.10125,2.48 -1.81316,3.2835 -0.70311,0.78671 -1.61444,1.36814 -2.7445,1.72418 -1.11839,0.35697 -2.45869,0.47034 -4.02609,0.32609 -3.11715,-0.28688 -6.25381,-0.62395 -9.41168,-1.01555 z m 2.75853,-4.16299 c 1.85246,0.20317 3.69823,0.38927 5.53765,0.55912 1.70424,0.15738 2.99848,0.0346 3.89051,-0.34836 0.9037,-0.38206 1.581,-0.96838 2.04087,-1.74176 0.64754,-1.08902 1.07203,-2.56239 1.306,-4.35881 0.24375,-1.81136 0.25034,-3.96246 0.0539,-6.3792 -0.27217,-3.34846 -0.83445,-5.76327 -1.78818,-7.4526 -0.94293,-1.70209 -2.03173,-2.8219 -3.29262,-3.4229 -0.91051,-0.42972 -2.35942,-0.68968 -4.35441,-0.79732 -1.7759,-0.0958 -3.5554,-0.19862 -5.33877,-0.30879 0.18405,6.9615 0.58251,14.67919 1.94501,24.25062 z"
         style="text-align:center;text-anchor:middle"
         id="path3969"
         inkscape:original-d="m 474.29444,576.57788 0,-25.00223 8.61263,0 c 1.94423,3e-5 3.42799,0.11941 4.45128,0.35815 1.43258,0.32975 2.65484,0.92667 3.66677,1.79075 1.31888,1.11426 2.30237,2.54117 2.95047,4.28073 0.65942,1.72823 0.98915,3.70658 0.98917,5.93505 -2e-5,1.89877 -0.22173,3.5815 -0.66513,5.0482 -0.44345,1.46671 -1.01194,2.68328 -1.70547,3.64971 -0.69358,0.95506 -1.45536,1.71116 -2.28534,2.26828 -0.81864,0.54575 -1.8135,0.96075 -2.98457,1.24499 -1.15974,0.28425 -2.49569,0.42637 -4.00786,0.42637 l -9.02195,0 m 3.30861,-2.95047 5.33813,0 c 1.64861,0 2.93908,-0.15349 3.87142,-0.46048 0.94368,-0.30698 1.69409,-0.73903 2.25123,-1.29616 0.7845,-0.78451 1.39278,-1.83621 1.82485,-3.15512 0.44341,-1.33026 0.66512,-2.93909 0.66514,-4.82649 -2e-5,-2.61504 -0.43208,-4.62181 -1.29616,-6.02031 -0.85276,-1.40984 -1.89309,-2.35353 -3.12102,-2.83109 -0.88686,-0.34107 -2.31377,-0.51162 -4.28073,-0.51164 l -5.25286,0 0,19.10129" />
      <path
         d="m 502.59874,585.07617 c -1.19618,-6.62247 -1.9006,-12.49361 -2.36454,-17.87986 -0.46393,-5.38624 -0.68738,-10.28758 -0.82693,-14.97125 6.03299,0.15649 12.03622,0.25665 18.0198,0.31199 0.0387,1.12626 0.0826,2.26312 0.13328,3.41366 -4.89095,-0.0514 -9.79681,-0.13985 -14.72335,-0.2731 0.12007,2.95406 0.28443,6.01105 0.52978,9.23098 4.63027,0.16241 9.23694,0.26588 13.8252,0.32002 0.0983,1.23538 0.20852,2.49232 0.33326,3.77385 -4.59019,-0.0469 -9.201,-0.14942 -13.83785,-0.31839 0.34993,3.72699 0.82128,7.68356 1.49077,11.95185 5.16619,0.17227 10.29046,0.23586 15.3809,0.21045 0.23517,1.455 0.49404,2.94337 0.78031,4.46815 -6.18658,0.0761 -12.42844,0.009 -18.74063,-0.23835 z"
         style="text-align:center;text-anchor:middle"
         id="path3971"
         inkscape:original-d="m 499.60365,576.57788 0,-25.00223 18.078,0 0,2.95047 -14.76939,0 0,7.65757 13.83138,0 0,2.93341 -13.83138,0 0,8.51031 15.34925,0 0,2.95047 -18.65786,0" />
      <path
         d="m 525.77491,585.23581 c -1.20991,-6.4066 -1.93789,-12.18273 -2.42868,-17.55187 -0.49079,-5.36914 -0.74439,-10.33129 -0.91086,-15.11076 1.09325,0.006 2.18593,0.01 3.27812,0.013 0.14763,4.21663 0.36418,8.57147 0.74815,13.21424 0.38396,4.64277 0.93534,9.57347 1.80992,14.94131 4.05785,-0.0887 8.09658,-0.22822 12.12039,-0.40845 0.22872,1.40005 0.48042,2.82813 0.75873,4.28677 -5.09491,0.28386 -10.21722,0.49661 -15.37577,0.61573 z"
         style="text-align:center;text-anchor:middle"
         id="path3973"
         inkscape:original-d="m 522.72985,576.57788 0,-25.00223 3.30862,0 0,22.05176 12.31351,0 0,2.95047 -15.62213,0" />
      <path
         d="m 545.56591,584.35642 c -1.16468,-6.10528 -1.86331,-11.68527 -2.33495,-16.92607 -0.47164,-5.2408 -0.71629,-10.14241 -0.87833,-14.89174 1.08869,-0.009 2.1772,-0.0182 3.26559,-0.0287 0.15919,4.73665 0.3996,9.62059 0.86467,14.8326 0.46507,5.212 1.1548,10.75206 2.30731,16.80013 -1.0737,0.074 -2.14844,0.14534 -3.22429,0.21378 z"
         style="text-align:center;text-anchor:middle"
         id="path3975"
         inkscape:original-d="m 542.87148,576.57788 0,-25.00223 3.30862,0 0,25.00223 -3.30862,0" />
      <path
         d="m 561.36661,583.16216 c -2.65467,-5.67379 -4.88778,-11.00198 -6.91619,-16.07888 -2.02842,-5.07691 -3.85212,-9.90253 -5.60101,-14.60703 1.17795,-0.0132 2.35583,-0.0273 3.53371,-0.0424 2.35729,6.80856 4.85082,13.86705 7.93798,21.54388 0.74438,1.84521 1.42744,3.61309 2.04363,5.29657 0.0812,-1.85931 0.2672,-3.67405 0.54968,-5.44871 1.23471,-7.87384 3.1346,-14.90048 5.17554,-21.63574 1.1121,-0.0198 2.22451,-0.04 3.3373,-0.0606 -1.49351,4.61478 -2.91283,9.36827 -4.10876,14.43011 -1.19592,5.06185 -2.16846,10.43204 -2.67076,16.31484 -1.09303,0.0978 -2.1867,0.19381 -3.28112,0.28792 z"
         style="text-align:center;text-anchor:middle"
         id="path3977"
         inkscape:original-d="m 559.14169,576.57788 -9.68708,-25.00223 3.58149,0 6.49785,18.16328 c 0.523,1.45535 0.96074,2.81972 1.31321,4.09314 0.38656,-1.36438 0.83567,-2.72875 1.34733,-4.09314 l 6.75367,-18.16328 3.37683,0 -9.78941,25.00223 -3.39389,0" />
      <path
         d="m 577.04901,581.70193 c -0.99223,-5.48162 -1.55847,-10.60768 -1.9286,-15.5039 -0.37013,-4.89621 -0.54415,-9.56259 -0.65725,-14.12566 5.96142,-0.11319 11.93553,-0.23437 17.93246,-0.35201 0.0165,1.04526 0.0358,2.09475 0.059,3.14971 -4.88927,0.12338 -9.76395,0.24973 -14.62979,0.37125 0.0871,2.81288 0.2063,5.67334 0.38952,8.60903 4.528,-0.19499 9.06094,-0.39626 13.60404,-0.59421 0.0556,1.08775 0.11962,2.18418 0.19443,3.29054 -4.52616,0.2372 -9.04337,0.47818 -13.55703,0.71208 0.26558,3.33116 0.62925,6.76829 1.16095,10.34914 4.94999,-0.42113 9.89812,-0.85376 14.85252,-1.2782 0.15796,1.1743 0.33491,2.36179 0.53428,3.56367 -5.98564,0.60248 -11.96546,1.21812 -17.95451,1.80856 z"
         style="text-align:center;text-anchor:middle"
         id="path3979"
         inkscape:original-d="m 575.39484,576.57788 0,-25.00223 18.078,0 0,2.95047 -14.76939,0 0,7.65757 13.83138,0 0,2.93341 -13.83138,0 0,8.51031 15.34925,0 0,2.95047 -18.65786,0" />
      <path
         d="m 599.48588,579.44539 c -0.803,-4.9956 -1.21966,-9.75721 -1.4733,-14.36727 -0.25363,-4.61006 -0.34422,-9.06857 -0.40042,-13.45879 3.686,-0.0703 7.38167,-0.13797 11.08937,-0.2004 2.236,-0.0376 3.94111,0.17028 5.10922,0.619 1.16804,0.43707 2.10255,1.23283 2.80411,2.38944 0.70153,1.15666 1.0549,2.4426 1.06831,3.8671 0.0172,1.83658 -0.53091,3.41076 -1.63998,4.73127 -1.10911,1.32055 -2.83505,2.217 -5.19192,2.67916 0.88664,0.41277 1.56543,0.82755 2.03698,1.24574 1.00292,0.90704 1.97056,2.05269 2.92004,3.44124 1.5956,2.369 3.24007,4.74155 4.96289,7.10912 -1.34558,0.10845 -2.68981,0.22029 -4.03283,0.33508 -1.3284,-1.83807 -2.6089,-3.67627 -3.85523,-5.511 -1.09037,-1.58733 -1.95687,-2.79604 -2.62792,-3.62977 -0.67108,-0.83369 -1.25946,-1.41058 -1.77199,-1.73185 -0.50134,-0.32179 -1.00771,-0.53857 -1.51975,-0.64997 -0.3748,-0.0685 -0.98294,-0.0824 -1.82373,-0.0408 -1.26119,0.0624 -2.5213,0.12584 -3.78044,0.19019 0.24328,4.08772 0.62809,8.29297 1.31392,12.66917 -1.0628,0.1036 -2.12522,0.20813 -3.18733,0.31338 z m 1.71215,-16.12468 c 2.34309,-0.0998 4.68977,-0.19694 7.04075,-0.29007 1.49965,-0.0594 2.66822,-0.26827 3.50659,-0.6246 0.83798,-0.36834 1.46933,-0.9188 1.89664,-1.64926 0.42703,-0.74239 0.63583,-1.53292 0.62483,-2.37409 -0.0162,-1.23207 -0.45687,-2.22868 -1.32957,-2.99956 -0.86134,-0.77107 -2.22183,-1.1387 -4.07758,-1.09902 -2.64134,0.0565 -5.27663,0.11632 -7.90677,0.17826 0.0451,2.91013 0.11398,5.85547 0.24511,8.85834 z"
         style="text-align:center;text-anchor:middle"
         id="path3981"
         inkscape:original-d="m 598.70865,576.57788 0,-25.00223 11.08557,0 c 2.22846,3e-5 3.92256,0.22742 5.0823,0.68219 1.1597,0.44345 2.08634,1.23365 2.77992,2.37061 0.69354,1.137 1.04032,2.39336 1.04034,3.76909 -2e-5,1.77371 -0.5742,3.26884 -1.72253,4.48539 -1.14837,1.21659 -2.92206,1.98973 -5.32107,2.31945 0.87546,0.42069 1.54059,0.83569 1.9954,1.24499 0.96642,0.88686 1.88169,1.99541 2.74581,3.32567 l 4.34896,6.80484 -4.16135,0 -3.30862,-5.20169 c -0.96645,-1.50081 -1.76234,-2.64916 -2.38766,-3.44506 -0.62536,-0.79587 -1.18816,-1.35299 -1.68842,-1.67136 -0.48891,-0.31834 -0.98919,-0.54006 -1.50082,-0.66513 -0.37521,-0.0796 -0.98918,-0.11938 -1.84191,-0.11939 l -3.83731,0 0,11.10263 -3.30861,0 m 3.30861,-13.96782 7.11182,0 c 1.51217,10e-6 2.69463,-0.15348 3.54738,-0.46048 0.85272,-0.31834 1.5008,-0.81861 1.94424,-1.50081 0.44341,-0.69355 0.66512,-1.44395 0.66514,-2.25123 -2e-5,-1.18244 -0.43207,-2.15456 -1.29616,-2.91636 -0.85276,-0.76175 -2.20576,-1.14264 -4.05903,-1.14266 l -7.91339,0 0,8.27154" />
      <path
         d="m 630.09259,576.81073 c -0.40158,-3.71469 -0.57336,-7.37969 -0.6501,-11.00942 -3.31478,-4.83806 -6.53109,-9.69448 -9.76904,-14.54878 1.35557,-0.018 2.71304,-0.0349 4.0725,-0.0507 1.65373,2.53008 3.30151,5.05898 4.95542,7.58609 0.91561,1.41816 1.77021,2.83681 2.56833,4.25584 0.74589,-1.35124 1.6664,-2.86387 2.76496,-4.53294 1.6593,-2.498 3.35032,-4.96939 5.043,-7.43058 1.31766,-0.005 2.63754,-0.009 3.95973,-0.0106 -3.50766,4.81026 -7.02659,9.63898 -10.28384,14.63382 0.0552,3.60305 0.20012,7.23274 0.56903,10.89974 -1.07782,0.0663 -2.15446,0.13556 -3.22999,0.20759 z"
         style="text-align:center;text-anchor:middle"
         id="path3983"
         inkscape:original-d="m 630.3281,576.57788 0,-10.59099 -9.63591,-14.41124 4.02491,0 4.92882,7.53819 c 0.90957,1.40987 1.75662,2.81973 2.54115,4.22957 0.75039,-1.30751 1.65998,-2.7799 2.72875,-4.41717 l 4.84355,-7.35059 3.85436,0 -9.97701,14.41124 0,10.59099 -3.30862,0" />
    </g>
  </g>
</svg>
